# xmcd CD database file
#
# Track frame offsets:
#	150
#	13330
#	25837
#	49390
#	51717
#	71587
#	93337
#	109275
#	113737
#	130200
#	145425
#	164290
#	167605
#	185677
#	199740
#
# Disc length: 3012 seconds
#
# Revision: 3
# Processed by: cddbd v1.5PL3 Copyright (c) Steve Scherf et al.
# Submitted via: CDex 1.51
#
DISCID=e20bc20f
DTITLE=Magic Dick and Jay Geils - Little Car Blues
DYEAR=1996
DGENRE=Blues
TTITLE0=Bluestime Theme
TTITLE1=Tonight with a Fool
TTITLE2=The Jumpin' Blues
TTITLE3=Hot Leftover #1
TTITLE4=Feel So Bad
TTITLE5=Fool that I Am
TTITLE6=Stubborn Kind of Fellow
TTITLE7=Hot Leftover #2: Black and Tan Fantasy
TTITLE8=I Don't Play
TTITLE9=Last Time
TTITLE10=Some Sweet Day
TTITLE11=Hot Leftover #3
TTITLE12=Little Car Blues
TTITLE13=Temperature
TTITLE14=Look How, Baby
EXTD=YEAR: 1996
EXTT0=
EXTT1=
EXTT2=
EXTT3=
EXTT4=
EXTT5=
EXTT6=
EXTT7=
EXTT8=
EXTT9=
EXTT10=
EXTT11=
EXTT12=
EXTT13=
EXTT14=
PLAYORDER=
